<?xml version="1.0" encoding="UTF-8"?>
<svg xmlns="http://www.w3.org/2000/svg" xmlns:xlink="http://www.w3.org/1999/xlink" width="693px" height="500px" viewBox="0 0 694 500" version="1.1">
<defs>
<clipPath id="clip1">
  <path d="M 4.488281 27.429688 L 671.621094 27.429688 L 671.621094 427.800781 L 4.488281 427.800781 Z M 4.488281 27.429688 "/>
</clipPath>
</defs>
<g id="surface1">
<g clip-path="url(#clip1)" clip-rule="nonzero">
<path style=" stroke:none;fill-rule:nonzero;fill:rgb(20.392157%,59.607843%,85.882353%);fill-opacity:1;" d="M 373.234375 62.863281 C 301.300781 85.835938 73.449219 -27.433594 91.28125 127.285156 C 94.070312 150.289062 108.882812 182.785156 96.371094 204.261719 C 87.308594 220.347656 70.6875 229.769531 54.636719 236.023438 C 12.707031 253.074219 -2.90625 285.070312 7.710938 330.742188 C 36.113281 453.800781 190.734375 424.617188 271.902344 388.128906 C 329.628906 360.976562 397.710938 356.3125 457.484375 379.28125 C 504.3125 397.984375 533.503906 437.222656 588.464844 425.726562 C 637.210938 415.945312 644.566406 369.917969 630.332031 327.074219 C 622.246094 300.566406 616.4375 289.367188 632.480469 263.78125 C 645.992188 238.367188 669.785156 219.113281 671.613281 189.34375 C 672.011719 157.097656 657.199219 124.605469 628.527344 112.390625 C 605.074219 102.402344 583.8125 106.433594 560.605469 100.289062 C 508.992188 85.785156 475.824219 5.574219 411.792969 33.160156 C 395.828125 40.695312 386.847656 58.066406 369.449219 63.125 "/>
</g>
<path style=" stroke:none;fill-rule:nonzero;fill:rgb(20.392157%,59.607843%,85.882353%);fill-opacity:1;" d="M 347.152344 51.816406 C 353.671875 51.816406 353.671875 41.703125 347.152344 41.703125 C 340.632812 41.703125 340.632812 51.816406 347.152344 51.816406 "/>
<path style=" stroke:none;fill-rule:nonzero;fill:rgb(20.392157%,59.607843%,85.882353%);fill-opacity:1;" d="M 47.683594 207.261719 C 60.722656 207.261719 60.722656 187.039062 47.683594 187.039062 C 34.648438 187.039062 34.648438 207.261719 47.683594 207.261719 "/>
<path style=" stroke:none;fill-rule:nonzero;fill:rgb(20.392157%,59.607843%,85.882353%);fill-opacity:1;" d="M 655.464844 287.890625 C 668.5 287.890625 668.5 267.667969 655.464844 267.667969 C 642.425781 267.667969 642.425781 287.890625 655.464844 287.890625 "/>
<path style=" stroke:none;fill-rule:nonzero;fill:rgb(20.392157%,59.607843%,85.882353%);fill-opacity:1;" d="M 313.035156 46.761719 C 326.074219 46.761719 326.074219 26.539062 313.035156 26.539062 C 299.996094 26.539062 299.996094 46.761719 313.035156 46.761719 "/>
<path style=" stroke:none;fill-rule:nonzero;fill:rgb(20.392157%,59.607843%,85.882353%);fill-opacity:1;" d="M 675.679688 255.789062 C 692.628906 255.789062 692.628906 229.503906 675.679688 229.503906 C 658.730469 229.503906 658.730469 255.789062 675.679688 255.789062 "/>
<path style=" stroke:none;fill-rule:nonzero;fill:rgb(20.392157%,59.607843%,85.882353%);fill-opacity:1;" d="M 13.570312 240.625 C 30.519531 240.625 30.519531 214.339844 13.570312 214.339844 C -3.378906 214.339844 -3.378906 240.625 13.570312 240.625 "/>
<path style=" stroke:none;fill-rule:nonzero;fill:rgb(20.392157%,59.607843%,85.882353%);fill-opacity:1;" d="M 574.59375 82.652344 C 591.542969 82.652344 591.542969 56.363281 574.59375 56.363281 C 557.644531 56.363281 557.644531 82.652344 574.59375 82.652344 "/>
<path style=" stroke:none;fill-rule:nonzero;fill:rgb(20.392157%,59.607843%,85.882353%);fill-opacity:1;" d="M 342.097656 30.332031 C 361.65625 30.332031 361.65625 0 342.097656 0 C 322.542969 0 322.542969 30.332031 342.097656 30.332031 "/>
<path style=" stroke:none;fill-rule:nonzero;fill:rgb(20.392157%,59.607843%,85.882353%);fill-opacity:1;" d="M 686.546875 279.546875 C 696.324219 279.546875 696.324219 264.382812 686.546875 264.382812 C 676.769531 264.382812 676.769531 279.546875 686.546875 279.546875 "/>
<path style=" stroke:none;fill-rule:nonzero;fill:rgb(20.392157%,59.607843%,85.882353%);fill-opacity:1;" d="M 10.03125 198.414062 C 19.808594 198.414062 19.808594 183.25 10.03125 183.25 C 0.253906 183.25 0.253906 198.414062 10.03125 198.414062 "/>
<path style=" stroke:none;fill-rule:nonzero;fill:rgb(20.392157%,59.607843%,85.882353%);fill-opacity:1;" d="M 606.183594 97.3125 C 615.960938 97.3125 615.960938 82.144531 606.183594 82.144531 C 596.40625 82.144531 596.40625 97.3125 606.183594 97.3125 "/>
<path style=" stroke:none;fill-rule:nonzero;fill:rgb(20.392157%,59.607843%,85.882353%);fill-opacity:1;" d="M 603.65625 69.507812 C 610.175781 69.507812 610.175781 59.398438 603.65625 59.398438 C 597.136719 59.398438 597.136719 69.507812 603.65625 69.507812 "/>
<path style=" stroke:none;fill-rule:nonzero;fill:rgb(20.392157%,59.607843%,85.882353%);fill-opacity:1;" d="M 91.660156 52.066406 C 104.695312 52.066406 104.695312 31.847656 91.660156 31.847656 C 78.621094 31.847656 78.621094 52.066406 91.660156 52.066406 "/>
<path style=" stroke:none;fill-rule:nonzero;fill:rgb(20.392157%,59.607843%,85.882353%);fill-opacity:1;" d="M 666.835938 400.621094 C 679.875 400.621094 679.875 380.402344 666.835938 380.402344 C 653.796875 380.402344 653.796875 400.621094 666.835938 400.621094 "/>
<path style=" stroke:none;fill-rule:nonzero;fill:rgb(20.392157%,59.607843%,85.882353%);fill-opacity:1;" d="M 9.777344 409.46875 C 22.816406 409.46875 22.816406 389.246094 9.777344 389.246094 C -3.257812 389.246094 -3.257812 409.46875 9.777344 409.46875 "/>
<path style=" stroke:none;fill-rule:nonzero;fill:rgb(20.392157%,59.607843%,85.882353%);fill-opacity:1;" d="M 121.984375 36.902344 C 128.503906 36.902344 128.503906 26.789062 121.984375 26.789062 C 115.464844 26.789062 115.464844 36.902344 121.984375 36.902344 "/>
<path style=" stroke:none;fill-rule:nonzero;fill:rgb(20.392157%,59.607843%,85.882353%);fill-opacity:1;" d="M 668.097656 360.179688 C 674.617188 360.179688 674.617188 350.070312 668.097656 350.070312 C 661.578125 350.070312 661.578125 360.179688 668.097656 360.179688 "/>
<path style=" stroke:none;fill-rule:nonzero;fill:rgb(20.392157%,59.607843%,85.882353%);fill-opacity:1;" d="M 40.101562 422.105469 C 46.621094 422.105469 46.621094 411.996094 40.101562 411.996094 C 33.585938 411.996094 33.585938 422.105469 40.101562 422.105469 "/>
<path style=" stroke:none;fill-rule:nonzero;fill:rgb(10.980392%,10.980392%,10.588235%);fill-opacity:1;" d="M 184.40625 251.878906 C 177.597656 254.285156 173.101562 254.746094 169.613281 247.859375 C 166.925781 242.554688 165.132812 237.078125 161.753906 232.113281 C 154.421875 221.347656 147.324219 220.628906 135.585938 222.160156 C 123.9375 223.683594 108.046875 220.707031 106.28125 207.234375 C 105.019531 197.628906 104.949219 188.800781 100.742188 179.816406 C 98.671875 175.394531 92.136719 179.246094 94.199219 183.644531 C 98.859375 193.613281 96.820312 204.464844 100.234375 214.617188 C 103.695312 224.917969 115.226562 228.242188 124.917969 229.398438 C 132.242188 230.273438 138.65625 228.503906 145.835938 228.511719 C 153.546875 228.523438 158.8125 241.753906 161.257812 247.5625 C 166.351562 259.671875 173.570312 263.734375 186.421875 259.191406 C 191 257.574219 189.027344 250.25 184.40625 251.878906 "/>
<path style=" stroke:none;fill-rule:nonzero;fill:rgb(10.980392%,10.980392%,10.588235%);fill-opacity:1;" d="M 104.289062 169.585938 C 102.015625 172.558594 99.242188 174.414062 95.9375 176.078125 C 92.445312 177.839844 95.519531 183.070312 99 181.316406 C 103.292969 179.152344 106.601562 176.476562 109.523438 172.648438 C 110.53125 171.328125 109.730469 169.253906 108.4375 168.496094 C 106.875 167.585938 105.289062 168.273438 104.289062 169.585938 "/>
<path style=" stroke:none;fill-rule:nonzero;fill:rgb(10.980392%,10.980392%,10.588235%);fill-opacity:1;" d="M 93.425781 161.511719 C 93.445312 167.925781 94.378906 174.304688 94.4375 180.722656 C 94.472656 184.632812 100.539062 184.632812 100.503906 180.722656 C 100.445312 174.304688 99.507812 167.925781 99.492188 161.511719 C 99.480469 157.601562 93.417969 157.601562 93.425781 161.511719 "/>
<path style=" stroke:none;fill-rule:nonzero;fill:rgb(10.980392%,10.980392%,10.588235%);fill-opacity:1;" d="M 83.195312 167.699219 C 87.253906 172.773438 91.375 177.835938 96.949219 181.316406 C 100.277344 183.394531 103.320312 178.144531 100.011719 176.078125 C 94.921875 172.902344 91.1875 168.039062 87.484375 163.410156 C 85.039062 160.355469 80.78125 164.679688 83.195312 167.699219 "/>
<path style=" stroke:none;fill-rule:nonzero;fill:rgb(10.980392%,10.980392%,10.588235%);fill-opacity:1;" d="M 78.144531 176.796875 C 83.785156 182.132812 90.820312 183.902344 98.277344 181.625 C 102.007812 180.484375 100.414062 174.628906 96.664062 175.773438 C 91.28125 177.417969 86.550781 176.40625 82.429688 172.507812 C 79.59375 169.824219 75.296875 174.105469 78.144531 176.796875 "/>
<path style=" stroke:none;fill-rule:nonzero;fill:rgb(10.980392%,10.980392%,10.588235%);fill-opacity:1;" d="M 494.484375 270.703125 C 494.757812 260.792969 498.070312 257.488281 507.632812 256.707031 C 513.847656 256.199219 520.152344 256.285156 526.296875 255.140625 C 535.675781 253.394531 535.503906 240.453125 539.132812 233.773438 C 544.675781 223.574219 559.566406 224.65625 569.175781 221.644531 C 579.761719 218.324219 583.828125 209.359375 584.453125 198.917969 C 584.742188 194.03125 577.160156 194.058594 576.871094 198.917969 C 575.941406 214.453125 564.550781 214.992188 552.039062 217.566406 C 541.011719 219.835938 533.542969 225.882812 529.710938 236.511719 C 528.511719 239.835938 528.21875 246.773438 524.28125 247.828125 C 517.871094 249.550781 510.492188 248.761719 503.894531 249.476562 C 491.5 250.820312 487.230469 258.9375 486.902344 270.703125 C 486.769531 275.59375 494.351562 275.582031 494.484375 270.703125 "/>
<path style=" stroke:none;fill-rule:nonzero;fill:rgb(10.980392%,10.980392%,10.588235%);fill-opacity:1;" d="M 566.617188 189.613281 C 569.207031 195.792969 573.675781 200.261719 579.855469 202.855469 C 581.382812 203.496094 583.191406 202.175781 583.585938 200.734375 C 584.066406 198.988281 582.992188 197.644531 581.46875 197.003906 C 577.480469 195.332031 574.136719 191.988281 572.464844 188.003906 C 571.824219 186.480469 570.484375 185.402344 568.734375 185.882812 C 567.292969 186.28125 565.976562 188.085938 566.617188 189.613281 "/>
<path style=" stroke:none;fill-rule:nonzero;fill:rgb(10.980392%,10.980392%,10.588235%);fill-opacity:1;" d="M 575.605469 181.730469 L 575.605469 196.898438 C 575.605469 200.808594 581.671875 200.808594 581.671875 196.898438 L 581.671875 181.730469 C 581.671875 177.820312 575.605469 177.820312 575.605469 181.730469 "/>
<path style=" stroke:none;fill-rule:nonzero;fill:rgb(10.980392%,10.980392%,10.588235%);fill-opacity:1;" d="M 585.824219 182.949219 C 583.984375 188.25 580.8125 192.242188 576.492188 195.765625 C 573.460938 198.238281 577.78125 202.503906 580.785156 200.050781 C 585.925781 195.859375 589.496094 190.835938 591.671875 184.558594 C 592.957031 180.855469 587.09375 179.273438 585.824219 182.949219 "/>
<path style=" stroke:none;fill-rule:nonzero;fill:rgb(10.980392%,10.980392%,10.588235%);fill-opacity:1;" d="M 593.207031 189.300781 C 590.5625 193.488281 586.386719 196.167969 581.875 198.015625 C 578.308594 199.480469 579.867188 205.351562 583.488281 203.867188 C 589.53125 201.390625 594.894531 197.988281 598.445312 192.363281 C 600.535156 189.042969 595.285156 186.003906 593.207031 189.300781 "/>
<path style=" stroke:none;fill-rule:nonzero;fill:rgb(70.588235%,70.588235%,70.588235%);fill-opacity:1;" d="M 530.628906 380.566406 C 530.628906 385.871094 490.921875 387.410156 486.628906 387.410156 L 189.480469 387.410156 C 185.195312 387.410156 145.480469 385.871094 145.480469 380.566406 L 181.714844 326.242188 C 181.714844 320.9375 185.195312 316.636719 189.480469 316.636719 L 486.628906 316.636719 C 490.921875 316.636719 494.394531 320.9375 494.394531 326.242188 Z M 530.628906 380.566406 "/>
<path style=" stroke:none;fill-rule:nonzero;fill:rgb(23.529412%,23.529412%,22.745098%);fill-opacity:1;" d="M 276.945312 368.464844 L 200.578125 368.464844 L 213.941406 336.113281 L 283.011719 336.113281 Z M 276.945312 368.464844 "/>
<path style=" stroke:none;fill-rule:nonzero;fill:rgb(23.529412%,23.529412%,22.745098%);fill-opacity:1;" d="M 399.164062 368.464844 L 475.53125 368.464844 L 462.164062 336.113281 L 393.09375 336.113281 Z M 399.164062 368.464844 "/>
<path style=" stroke:none;fill-rule:nonzero;fill:rgb(23.529412%,23.529412%,22.745098%);fill-opacity:1;" d="M 484.019531 368.464844 L 510.910156 368.464844 L 488.90625 336.113281 L 468.621094 336.113281 Z M 484.019531 368.464844 "/>
<path style=" stroke:none;fill-rule:nonzero;fill:rgb(23.529412%,23.529412%,22.745098%);fill-opacity:1;" d="M 192.09375 368.464844 L 165.199219 368.464844 L 187.207031 336.113281 L 207.488281 336.113281 Z M 192.09375 368.464844 "/>
<path style=" stroke:none;fill-rule:nonzero;fill:rgb(23.529412%,23.529412%,22.745098%);fill-opacity:1;" d="M 392.445312 368.464844 L 283.660156 368.464844 L 289.726562 336.113281 L 386.378906 336.113281 Z M 392.445312 368.464844 "/>
<path style=" stroke:none;fill-rule:nonzero;fill:rgb(70.588235%,70.588235%,70.588235%);fill-opacity:1;" d="M 504.277344 346.96875 L 171.835938 346.96875 L 171.835938 342.015625 L 504.277344 342.015625 Z M 504.277344 346.96875 "/>
<path style=" stroke:none;fill-rule:nonzero;fill:rgb(70.588235%,70.588235%,70.588235%);fill-opacity:1;" d="M 507.878906 359.101562 L 168.230469 359.101562 L 168.230469 354.148438 L 507.878906 354.148438 Z M 507.878906 359.101562 "/>
<path style=" stroke:none;fill-rule:nonzero;fill:rgb(23.529412%,23.529412%,22.745098%);fill-opacity:1;" d="M 532.660156 393.148438 C 532.660156 397.4375 531.773438 400.914062 527.488281 400.914062 L 148.621094 400.914062 C 144.332031 400.914062 143.445312 397.4375 143.445312 393.148438 L 143.445312 386.488281 C 143.445312 382.203125 144.332031 378.726562 148.621094 378.726562 L 527.488281 378.726562 C 531.773438 378.726562 532.660156 382.203125 532.660156 386.488281 Z M 532.660156 393.148438 "/>
<path style=" stroke:none;fill-rule:nonzero;fill:rgb(43.921569%,43.921569%,43.921569%);fill-opacity:1;" d="M 409.066406 390.003906 C 409.066406 392.238281 407.257812 394.050781 405.023438 394.050781 L 271.085938 394.050781 C 268.851562 394.050781 267.042969 392.238281 267.042969 390.003906 C 267.042969 387.769531 268.851562 385.960938 271.085938 385.960938 L 405.023438 385.960938 C 407.257812 385.960938 409.066406 387.769531 409.066406 390.003906 "/>
<path style=" stroke:none;fill-rule:nonzero;fill:rgb(23.529412%,23.529412%,22.745098%);fill-opacity:1;" d="M 498.277344 318.910156 C 498.277344 323.199219 494.800781 326.679688 490.507812 326.679688 L 185.597656 326.679688 C 181.308594 326.679688 177.832031 323.199219 177.832031 318.910156 L 177.832031 119.953125 C 177.832031 115.664062 181.308594 112.183594 185.597656 112.183594 L 490.507812 112.183594 C 494.800781 112.183594 498.277344 115.664062 498.277344 119.953125 Z M 498.277344 318.910156 "/>
<path style=" stroke:none;fill-rule:nonzero;fill:rgb(100%,100%,100%);fill-opacity:1;" d="M 338.054688 122.988281 C 342.230469 122.988281 342.230469 116.515625 338.054688 116.515625 C 333.882812 116.515625 333.882812 122.988281 338.054688 122.988281 "/>
<path style=" stroke:none;fill-rule:nonzero;fill:rgb(100%,100%,100%);fill-opacity:1;" d="M 475.847656 306.402344 C 475.847656 310.09375 472.855469 313.082031 469.171875 313.082031 L 206.941406 313.082031 C 203.257812 313.082031 200.261719 310.09375 200.261719 306.402344 L 200.261719 135.304688 C 200.261719 131.617188 203.257812 128.625 206.941406 128.625 L 469.171875 128.625 C 472.855469 128.625 475.847656 131.617188 475.847656 135.304688 Z M 475.847656 306.402344 "/>
<path style="fill:none;stroke-width:3.3;stroke-linecap:round;stroke-linejoin:round;stroke:rgb(19.607843%,34.901961%,45.882353%);stroke-opacity:1;stroke-miterlimit:10;" d="M -0.000625061 0.0000562371 L -12.446735 -12.443944 " transform="matrix(1.837924,0,0,-1.838235,297.938649,197.976666)"/>
<path style="fill:none;stroke-width:3.3;stroke-linecap:round;stroke-linejoin:round;stroke:rgb(19.607843%,34.901961%,45.882353%);stroke-opacity:1;stroke-miterlimit:10;" d="M -0.000625061 0.000130973 L -12.444609 12.444131 " transform="matrix(1.837924,0,0,-1.838235,297.938649,220.85571)"/>
<path style="fill:none;stroke-width:3.3;stroke-linecap:round;stroke-linejoin:round;stroke:rgb(19.607843%,34.901961%,45.882353%);stroke-opacity:1;stroke-miterlimit:10;" d="M 0.000784774 0.0000562371 L -12.445325 -12.443944 " transform="matrix(1.837924,0,0,-1.838235,401.045433,197.976666)"/>
<path style="fill:none;stroke-width:3.3;stroke-linecap:round;stroke-linejoin:round;stroke:rgb(19.607843%,34.901961%,45.882353%);stroke-opacity:1;stroke-miterlimit:10;" d="M 0.000784774 0.000130973 L -12.4432 12.444131 " transform="matrix(1.837924,0,0,-1.838235,401.045433,220.85571)"/>
<path style=" stroke:none;fill-rule:nonzero;fill:rgb(94.901961%,60.784314%,70.588235%);fill-opacity:1;" d="M 390.777344 248.460938 L 390.777344 271.039062 C 390.777344 275.507812 387.15625 279.128906 382.691406 279.128906 L 378.332031 279.128906 C 373.863281 279.128906 370.242188 275.507812 370.242188 271.039062 L 370.242188 248.460938 "/>
<path style=" stroke:none;fill-rule:nonzero;fill:rgb(93.72549%,50.980392%,63.529412%);fill-opacity:1;" d="M 384.058594 249.640625 L 380.511719 275.925781 L 376.964844 249.640625 Z M 384.058594 249.640625 "/>
<path style="fill:none;stroke-width:2.75;stroke-linecap:round;stroke-linejoin:round;stroke:rgb(19.607843%,34.901961%,45.882353%);stroke-opacity:1;stroke-miterlimit:10;" d="M -0.0000717861 0.000630655 L 74.587322 0.000630655 " transform="matrix(1.837924,0,0,-1.838235,269.511851,248.434753)"/>
<path style=" stroke:none;fill-rule:nonzero;fill:rgb(96.862745%,76.470588%,82.352941%);fill-opacity:1;" d="M 247.078125 245.089844 C 260.117188 245.089844 260.117188 224.871094 247.078125 224.871094 C 234.039062 224.871094 234.039062 245.089844 247.078125 245.089844 "/>
<path style=" stroke:none;fill-rule:nonzero;fill:rgb(96.862745%,76.470588%,82.352941%);fill-opacity:1;" d="M 429.03125 245.089844 C 442.070312 245.089844 442.070312 224.871094 429.03125 224.871094 C 415.996094 224.871094 415.996094 245.089844 429.03125 245.089844 "/>
<path style=" stroke:none;fill-rule:nonzero;fill:rgb(94.901961%,56.862745%,0.392157%);fill-opacity:1;" d="M 446.214844 85.683594 L 446.214844 152.414062 C 446.214844 158.933594 456.324219 158.933594 456.324219 152.414062 L 456.324219 85.683594 C 456.324219 79.164062 446.214844 79.164062 446.214844 85.683594 "/>
<path style=" stroke:none;fill-rule:nonzero;fill:rgb(94.901961%,56.862745%,0.392157%);fill-opacity:1;" d="M 451.269531 178.195312 C 461.046875 178.195312 461.046875 163.027344 451.269531 163.027344 C 441.492188 163.027344 441.492188 178.195312 451.269531 178.195312 "/>
<path style=" stroke:none;fill-rule:nonzero;fill:rgb(20.392157%,59.607843%,85.882353%);fill-opacity:1;" d="M 473.179688 483.753906 C 473.179688 492.6875 465.9375 499.929688 457.003906 499.929688 L 220.464844 499.929688 C 211.53125 499.929688 204.289062 492.6875 204.289062 483.753906 L 204.289062 451.402344 C 204.289062 442.46875 211.53125 435.226562 220.464844 435.226562 L 457.003906 435.226562 C 465.9375 435.226562 473.179688 442.46875 473.179688 451.402344 Z M 473.179688 483.753906 "/>
<path style=" stroke:none;fill-rule:nonzero;fill:rgb(100%,100%,100%);fill-opacity:1;" d="M 438.8125 471.015625 L 438.8125 484.222656 L 435.121094 484.222656 L 435.121094 452.46875 L 443.832031 452.46875 C 447.726562 452.46875 450.601562 453.210938 452.453125 454.703125 C 454.320312 456.195312 455.253906 458.441406 455.253906 461.4375 C 455.253906 465.636719 453.125 468.476562 448.871094 469.953125 L 457.492188 484.222656 L 453.125 484.222656 L 445.4375 471.015625 Z M 438.8125 467.84375 L 443.875 467.84375 C 446.480469 467.84375 448.390625 467.332031 449.609375 466.304688 C 450.824219 465.261719 451.433594 463.703125 451.433594 461.632812 C 451.433594 459.535156 450.808594 458.019531 449.5625 457.09375 C 448.332031 456.167969 446.351562 455.703125 443.613281 455.703125 L 438.8125 455.703125 Z M 428.019531 468.300781 C 428.019531 473.382812 426.730469 477.382812 424.15625 480.292969 C 421.59375 483.203125 418.023438 484.65625 413.449219 484.65625 C 408.769531 484.65625 405.160156 483.230469 402.609375 480.378906 C 400.078125 477.511719 398.808594 473.472656 398.808594 468.257812 C 398.808594 463.089844 400.085938 459.085938 402.632812 456.246094 C 405.179688 453.394531 408.800781 451.96875 413.492188 451.96875 C 418.050781 451.96875 421.613281 453.414062 424.175781 456.3125 C 426.738281 459.207031 428.019531 463.203125 428.019531 468.300781 Z M 402.71875 468.300781 C 402.71875 472.601562 403.632812 475.867188 405.457031 478.097656 C 407.292969 480.3125 409.957031 481.421875 413.449219 481.421875 C 416.964844 481.421875 419.621094 480.3125 421.417969 478.097656 C 423.214844 475.882812 424.113281 472.617188 424.113281 468.300781 C 424.113281 464.03125 423.214844 460.792969 421.417969 458.59375 C 419.636719 456.375 416.996094 455.269531 413.492188 455.269531 C 409.972656 455.269531 407.292969 456.382812 405.457031 458.613281 C 403.632812 460.828125 402.71875 464.058594 402.71875 468.300781 Z M 376.613281 471.015625 L 376.613281 484.222656 L 372.921875 484.222656 L 372.921875 452.46875 L 381.632812 452.46875 C 385.527344 452.46875 388.398438 453.210938 390.253906 454.703125 C 392.121094 456.195312 393.054688 458.441406 393.054688 461.4375 C 393.054688 465.636719 390.925781 468.476562 386.671875 469.953125 L 395.292969 484.222656 L 390.925781 484.222656 L 383.238281 471.015625 Z M 376.613281 467.84375 L 381.675781 467.84375 C 384.28125 467.84375 386.191406 467.332031 387.410156 466.304688 C 388.625 465.261719 389.234375 463.703125 389.234375 461.632812 C 389.234375 459.535156 388.609375 458.019531 387.363281 457.09375 C 386.132812 456.167969 384.152344 455.703125 381.414062 455.703125 L 376.613281 455.703125 Z M 349.078125 471.015625 L 349.078125 484.222656 L 345.386719 484.222656 L 345.386719 452.46875 L 354.09375 452.46875 C 357.988281 452.46875 360.863281 453.210938 362.714844 454.703125 C 364.582031 456.195312 365.515625 458.441406 365.515625 461.4375 C 365.515625 465.636719 363.390625 468.476562 359.132812 469.953125 L 367.753906 484.222656 L 363.390625 484.222656 L 355.699219 471.015625 Z M 349.078125 467.84375 L 354.136719 467.84375 C 356.742188 467.84375 358.65625 467.332031 359.871094 466.304688 C 361.085938 465.261719 361.695312 463.703125 361.695312 461.632812 C 361.695312 459.535156 361.070312 458.019531 359.828125 457.09375 C 358.597656 456.167969 356.613281 455.703125 353.875 455.703125 L 349.078125 455.703125 Z M 338.328125 484.222656 L 320.625 484.222656 L 320.625 452.46875 L 338.328125 452.46875 L 338.328125 455.746094 L 324.320312 455.746094 L 324.320312 465.976562 L 337.480469 465.976562 L 337.480469 469.234375 L 324.320312 469.234375 L 324.320312 480.921875 L 338.328125 480.921875 Z M 304.035156 477.640625 L 300.210938 477.640625 L 300.210938 484.222656 L 293.652344 484.222656 L 293.652344 477.640625 L 280.101562 477.640625 L 280.101562 472.972656 L 294.023438 452.46875 L 300.210938 452.46875 L 300.210938 472.429688 L 304.035156 472.429688 Z M 293.652344 472.429688 L 293.652344 467.042969 C 293.652344 466.144531 293.691406 464.839844 293.761719 463.132812 C 293.835938 461.421875 293.890625 460.429688 293.9375 460.15625 L 293.761719 460.15625 C 293.226562 461.34375 292.582031 462.503906 291.828125 463.632812 L 286.007812 472.429688 Z M 277.777344 468.34375 C 277.777344 473.890625 276.867188 477.996094 275.042969 480.660156 C 273.230469 483.324219 270.4375 484.65625 266.660156 484.65625 C 262.996094 484.65625 260.230469 483.28125 258.363281 480.53125 C 256.507812 477.78125 255.582031 473.71875 255.582031 468.34375 C 255.582031 462.742188 256.488281 458.613281 258.296875 455.964844 C 260.105469 453.300781 262.894531 451.96875 266.660156 451.96875 C 270.320312 451.96875 273.085938 453.355469 274.953125 456.136719 C 276.835938 458.917969 277.777344 462.988281 277.777344 468.34375 Z M 262.25 468.34375 C 262.25 472.242188 262.582031 475.035156 263.25 476.730469 C 263.929688 478.410156 265.066406 479.25 266.660156 479.25 C 268.222656 479.25 269.351562 478.394531 270.046875 476.6875 C 270.742188 474.976562 271.089844 472.195312 271.089844 468.34375 C 271.089844 464.449219 270.734375 461.65625 270.023438 459.960938 C 269.328125 458.25 268.207031 457.398438 266.660156 457.398438 C 265.082031 457.398438 263.949219 458.25 263.269531 459.960938 C 262.589844 461.65625 262.25 464.449219 262.25 468.34375 Z M 253.300781 477.640625 L 249.480469 477.640625 L 249.480469 484.222656 L 242.921875 484.222656 L 242.921875 477.640625 L 229.371094 477.640625 L 229.371094 472.972656 L 243.289062 452.46875 L 249.480469 452.46875 L 249.480469 472.429688 L 253.300781 472.429688 Z M 242.921875 472.429688 L 242.921875 467.042969 C 242.921875 466.144531 242.957031 464.839844 243.03125 463.132812 C 243.101562 461.421875 243.160156 460.429688 243.203125 460.15625 L 243.03125 460.15625 C 242.492188 461.34375 241.847656 462.503906 241.097656 463.632812 L 235.277344 472.429688 Z M 242.921875 472.429688 "/>
</g>
</svg>
